<mxfile host="65bd71144e" modified="2020-12-24T16:53:36.788Z" agent="5.0 (Windows NT 10.0; Win64; x64) AppleWebKit/537.36 (KHTML, like Gecko) Code/1.52.1 Chrome/83.0.4103.122 Electron/9.3.5 Safari/537.36" etag="RXUu98F_-To0gXBjxoQR" version="13.10.0" type="embed">
    <diagram id="UWZzJR21ijse_Igmnhre" name="app-service_java">
        <mxGraphModel dx="7165" dy="2875" grid="1" gridSize="10" guides="1" tooltips="1" connect="1" arrows="1" fold="1" page="1" pageScale="1" pageWidth="1600" pageHeight="900" math="0" shadow="0">
            <root>
                <mxCell id="0"/>
                <mxCell id="1" parent="0"/>
                <mxCell id="el2H38QsFk6QhJ0XLffM-35" value="" style="rounded=0;whiteSpace=wrap;html=1;arcSize=5;verticalAlign=top;fontColor=#F0F0F0;fontSize=64;align=left;spacing=20;glass=0;shadow=1;fillColor=#333333;" parent="1" vertex="1">
                    <mxGeometry x="-1910" y="-70" width="3350" height="1000" as="geometry"/>
                </mxCell>
                <mxCell id="el2H38QsFk6QhJ0XLffM-22" value="Actor" style="rounded=1;whiteSpace=wrap;html=1;arcSize=5;fillColor=#1A1A1A;verticalAlign=top;fontColor=#F0F0F0;fontSize=64;align=left;spacing=20;" parent="1" vertex="1">
                    <mxGeometry x="-1840" y="5" width="650" height="850" as="geometry"/>
                </mxCell>
                <mxCell id="el2H38QsFk6QhJ0XLffM-21" value="Code" style="rounded=1;whiteSpace=wrap;html=1;arcSize=5;fillColor=#1A1A1A;verticalAlign=top;fontColor=#F0F0F0;fontSize=64;align=left;spacing=20;" parent="1" vertex="1">
                    <mxGeometry x="-1120" width="340" height="850" as="geometry"/>
                </mxCell>
                <mxCell id="el2H38QsFk6QhJ0XLffM-12" value="Tools" style="rounded=1;whiteSpace=wrap;html=1;arcSize=5;fillColor=#1A1A1A;verticalAlign=top;fontColor=#F0F0F0;fontSize=64;align=left;spacing=20;" parent="1" vertex="1">
                    <mxGeometry x="-720" y="-10" width="720" height="850" as="geometry"/>
                </mxCell>
                <mxCell id="2" value="Microsoft Azure" style="rounded=1;whiteSpace=wrap;html=1;arcSize=5;fillColor=#1A1A1A;verticalAlign=top;fontColor=#F0F0F0;fontSize=64;align=left;spacing=20;" parent="1" vertex="1">
                    <mxGeometry x="70" y="-10" width="1290" height="850" as="geometry"/>
                </mxCell>
                <mxCell id="0ULI48yKcXkIzvDSihA7-1" value="AppService for Java" style="shape=image;verticalLabelPosition=middle;labelBackgroundColor=none;verticalAlign=middle;aspect=fixed;imageAspect=0;image=data:image/svg+xml,PHN2ZyB4bWxucz0iaHR0cDovL3d3dy53My5vcmcvMjAwMC9zdmciIGlkPSJiNzBhY2YwYS0zNGI0LTRiZGYtOTAyNC03NDk2MDQzZmY5MTUiIHdpZHRoPSIxOCIgaGVpZ2h0PSIxOCIgdmlld0JveD0iMCAwIDE4IDE4Ij48ZGVmcz48cmFkaWFsR3JhZGllbnQgaWQ9ImUyY2Y4NzQ2LWM5YTgtNGVlZS04NmMyLTQ5NTE5ODNjNjAzMiIgY3g9IjEzNDI4LjgxIiBjeT0iMzUxOC44NiIgcj0iNTYuNjciIGdyYWRpZW50VHJhbnNmb3JtPSJ0cmFuc2xhdGUoLTIwMDUuMzMgLTUxOC44Mykgc2NhbGUoMC4xNSkiIGdyYWRpZW50VW5pdHM9InVzZXJTcGFjZU9uVXNlIj48c3RvcCBvZmZzZXQ9IjAuMTgiIHN0b3AtY29sb3I9IiM1ZWEwZWYiLz48c3RvcCBvZmZzZXQ9IjEiIHN0b3AtY29sb3I9IiMwMDc4ZDQiLz48L3JhZGlhbEdyYWRpZW50PjxsaW5lYXJHcmFkaWVudCBpZD0iYmRkMjEzZGQtZDMxMy00NzNjLThmZjQtMDEzM2ZkM2E5MDMzIiB4MT0iNC40IiB5MT0iMTEuNDgiIHgyPSI0LjM3IiB5Mj0iNy41MyIgZ3JhZGllbnRVbml0cz0idXNlclNwYWNlT25Vc2UiPjxzdG9wIG9mZnNldD0iMCIgc3RvcC1jb2xvcj0iI2NjYyIvPjxzdG9wIG9mZnNldD0iMSIgc3RvcC1jb2xvcj0iI2ZjZmNmYyIvPjwvbGluZWFyR3JhZGllbnQ+PGxpbmVhckdyYWRpZW50IGlkPSJhZmNjNjNjNS0zNjQ5LTQ0NzYtYTc0Mi1iY2I1M2E1NjlmM2MiIHgxPSIxMC4xMyIgeTE9IjE1LjQ1IiB4Mj0iMTAuMTMiIHkyPSIxMS45IiBncmFkaWVudFVuaXRzPSJ1c2VyU3BhY2VPblVzZSI+PHN0b3Agb2Zmc2V0PSIwIiBzdG9wLWNvbG9yPSIjY2NjIi8+PHN0b3Agb2Zmc2V0PSIxIiBzdG9wLWNvbG9yPSIjZmNmY2ZjIi8+PC9saW5lYXJHcmFkaWVudD48bGluZWFyR3JhZGllbnQgaWQ9ImJkODczZjBiLTk5NTQtNGFhNS1hM2RmLTlmNGM2NGU4NzI5ZCIgeDE9IjE0LjE4IiB5MT0iMTEuMTUiIHgyPSIxNC4xOCIgeTI9IjcuMzgiIGdyYWRpZW50VW5pdHM9InVzZXJTcGFjZU9uVXNlIj48c3RvcCBvZmZzZXQ9IjAiIHN0b3AtY29sb3I9IiNjY2MiLz48c3RvcCBvZmZzZXQ9IjEiIHN0b3AtY29sb3I9IiNmY2ZjZmMiLz48L2xpbmVhckdyYWRpZW50PjwvZGVmcz48dGl0bGU+SWNvbi13ZWItNDE8L3RpdGxlPjxwYXRoIGlkPSJlZTc1ZGQwNi0xYWNhLTRmNzYtOWQxMS1kMDVhMjg0MDIwYWQiIGQ9Ik0xNC4yMSwxNS43MkE4LjUsOC41LDAsMCwxLDMuNzksMi4yOGwuMDktLjA2YTguNSw4LjUsMCwwLDEsMTAuMzMsMTMuNSIgZmlsbD0idXJsKCNlMmNmODc0Ni1jOWE4LTRlZWUtODZjMi00OTUxOTgzYzYwMzIpIi8+PHBhdGggZD0iTTYuNjksNy4yM0ExMywxMywwLDAsMSwxNS42LDMuNjVhOC40Nyw4LjQ3LDAsMCwwLTEuNDktMS40NCwxNC4zNCwxNC4zNCwwLDAsMC00LjY5LDEuMUExMi41NCwxMi41NCwwLDAsMCw1LjM0LDYuMTMsMi43NiwyLjc2LDAsMCwxLDYuNjksNy4yM1oiIGZpbGw9IiNmZmYiIG9wYWNpdHk9IjAuNiIvPjxwYXRoIGQ9Ik0yLjQ4LDEwLjY1YTE3Ljg2LDE3Ljg2LDAsMCwwLS44MywyLjYyLDcuODIsNy44MiwwLDAsMCwuNjIuOTJjLjE4LjIzLjM1LjQ0LjU1LjY1QTE3Ljk0LDE3Ljk0LDAsMCwxLDMuOSwxMS4zNywyLjc2LDIuNzYsMCwwLDEsMi40OCwxMC42NVoiIGZpbGw9IiNmZmYiIG9wYWNpdHk9IjAuNiIvPjxwYXRoIGQ9Ik0zLjQ2LDYuMTFhMTIsMTIsMCwwLDEtLjY5LTIuOTQsOC4xNSw4LjE1LDAsMCwwLTEuMSwxLjQ1QTEyLjY5LDEyLjY5LDAsMCwwLDIuMjQsNywyLjY5LDIuNjksMCwwLDEsMy40Niw2LjExWiIgZmlsbD0iI2YyZjJmMiIgb3BhY2l0eT0iMC41NSIvPjxjaXJjbGUgY3g9IjQuMzgiIGN5PSI4LjY4IiByPSIyLjczIiBmaWxsPSJ1cmwoI2JkZDIxM2RkLWQzMTMtNDczYy04ZmY0LTAxMzNmZDNhOTAzMykiLz48cGF0aCBkPSJNOC4zNiwxMy42N0ExLjc3LDEuNzcsMCwwLDEsOC45LDEyLjRhMTEuODgsMTEuODgsMCwwLDEtMi41My0xLjg2LDIuNzQsMi43NCwwLDAsMS0xLjQ5LjgzLDEzLjEsMTMuMSwwLDAsMCwxLjQ1LDEuMjhBMTIuMTIsMTIuMTIsMCwwLDAsOC4zOCwxMy45LDEuNzksMS43OSwwLDAsMSw4LjM2LDEzLjY3WiIgZmlsbD0iI2YyZjJmMiIgb3BhY2l0eT0iMC41NSIvPjxwYXRoIGQ9Ik0xNC42NiwxMy44OGExMiwxMiwwLDAsMS0yLjc2LS4zMi40MS40MSwwLDAsMSwwLC4xMSwxLjc1LDEuNzUsMCwwLDEtLjUxLDEuMjQsMTMuNjksMTMuNjksMCwwLDAsMy40Mi4yNEE4LjIxLDguMjEsMCwwLDAsMTYsMTMuODEsMTEuNSwxMS41LDAsMCwxLDE0LjY2LDEzLjg4WiIgZmlsbD0iI2YyZjJmMiIgb3BhY2l0eT0iMC41NSIvPjxjaXJjbGUgY3g9IjEwLjEzIiBjeT0iMTMuNjciIHI9IjEuNzgiIGZpbGw9InVybCgjYWZjYzYzYzUtMzY0OS00NDc2LWE3NDItYmNiNTNhNTY5ZjNjKSIvPjxwYXRoIGQ9Ik0xMi4zMiw4LjkzYTEuODMsMS44MywwLDAsMSwuNjEtMUEyNS41LDI1LjUsMCwwLDEsOC40NywzLjc5YTE2LjkxLDE2LjkxLDAsMCwxLTItMi45Miw3LjY0LDcuNjQsMCwwLDAtMS4wOS40MkExOC4xNCwxOC4xNCwwLDAsMCw3LjUzLDQuNDcsMjYuNDQsMjYuNDQsMCwwLDAsMTIuMzIsOC45M1oiIGZpbGw9IiNmMmYyZjIiIG9wYWNpdHk9IjAuNyIvPjxjaXJjbGUgY3g9IjE0LjE4IiBjeT0iOS4yNyIgcj0iMS44OSIgZmlsbD0idXJsKCNiZDg3M2YwYi05OTU0LTRhYTUtYTNkZi05ZjRjNjRlODcyOWQpIi8+PHBhdGggZD0iTTE3LjM1LDEwLjU0LDE3LDEwLjM3bDAsMC0uMy0uMTYtLjA2LDBMMTYuMzgsMTBsLS4wNywwTDE2LDkuOGExLjc2LDEuNzYsMCwwLDEtLjY0LjkyYy4xMi4wOC4yNS4xNS4zOC4yMmwuMDguMDUuMzUuMTksMCwwLC44Ni40NWgwYTguNjMsOC42MywwLDAsMCwuMjktMS4xMVoiIGZpbGw9IiNmMmYyZjIiIG9wYWNpdHk9IjAuNTUiLz48Y2lyY2xlIGN4PSI0LjM4IiBjeT0iOC42OCIgcj0iMi43MyIgZmlsbD0idXJsKCNiZGQyMTNkZC1kMzEzLTQ3M2MtOGZmNC0wMTMzZmQzYTkwMzMpIi8+PGNpcmNsZSBjeD0iMTAuMTMiIGN5PSIxMy42NyIgcj0iMS43OCIgZmlsbD0idXJsKCNhZmNjNjNjNS0zNjQ5LTQ0NzYtYTc0Mi1iY2I1M2E1NjlmM2MpIi8+PC9zdmc+;fontSize=64;labelPosition=right;align=left;spacing=20;fontColor=#F0F0F0;" parent="1" vertex="1">
                    <mxGeometry x="420" y="600" width="200" height="200" as="geometry"/>
                </mxCell>
                <mxCell id="0ULI48yKcXkIzvDSihA7-2" value="AppService Plan" style="shape=image;verticalLabelPosition=middle;labelBackgroundColor=none;verticalAlign=middle;aspect=fixed;imageAspect=0;image=data:image/svg+xml,PHN2ZyB4bWxucz0iaHR0cDovL3d3dy53My5vcmcvMjAwMC9zdmciIGlkPSJmY2EyMTA1Zi1jMDM5LTRmMzQtYmQ2NS04YWI5NWQ0ZWNkYjkiIHdpZHRoPSIxOCIgaGVpZ2h0PSIxOCIgdmlld0JveD0iMCAwIDE4IDE4Ij48ZGVmcz48bGluZWFyR3JhZGllbnQgaWQ9ImE3NzNhZjM4LTQzZTQtNGZkMi05NDg1LWY4YWFjNjNjYTkxYiIgeDE9IjUuNTciIHkxPSIxNy41IiB4Mj0iNS41NyIgeTI9IjAuNSIgZ3JhZGllbnRVbml0cz0idXNlclNwYWNlT25Vc2UiPjxzdG9wIG9mZnNldD0iMC4wNSIgc3RvcC1jb2xvcj0iIzk0OTQ5NCIvPjxzdG9wIG9mZnNldD0iMC4zNiIgc3RvcC1jb2xvcj0iIzk3OTc5NyIvPjxzdG9wIG9mZnNldD0iMC41NCIgc3RvcC1jb2xvcj0iIzlmOWY5ZiIvPjxzdG9wIG9mZnNldD0iMC42OSIgc3RvcC1jb2xvcj0iI2FkYWRhZCIvPjxzdG9wIG9mZnNldD0iMC43MyIgc3RvcC1jb2xvcj0iI2IzYjNiMyIvPjwvbGluZWFyR3JhZGllbnQ+PGxpbmVhckdyYWRpZW50IGlkPSJiNDc3OWFlNi03NGE1LTQ4NmQtOGFhZC1jZDAxMTg1OTc4NWEiIHgxPSIxMC41NiIgeTE9IjYuMDIiIHgyPSIxMC41NiIgeTI9IjE5LjcxIiBncmFkaWVudFVuaXRzPSJ1c2VyU3BhY2VPblVzZSI+PHN0b3Agb2Zmc2V0PSIwLjE4IiBzdG9wLWNvbG9yPSIjNWVhMGVmIi8+PHN0b3Agb2Zmc2V0PSIxIiBzdG9wLWNvbG9yPSIjMDA3OGQ0Ii8+PC9saW5lYXJHcmFkaWVudD48L2RlZnM+PHRpdGxlPkljb24td2ViLTQ2PC90aXRsZT48cGF0aCBkPSJNMTAuNTYsMTYuOTNhLjU2LjU2LDAsMCwxLS41Ny41N0gxLjE0YS41Ni41NiwwLDAsMS0uNTYtLjU3VjEuMDdBLjU2LjU2LDAsMCwxLDEuMTQuNUgxMGEuNTYuNTYsMCwwLDEsLjU3LjU3WiIgZmlsbD0idXJsKCNhNzczYWYzOC00M2U0LTRmZDItOTQ4NS1mOGFhYzYzY2E5MWIpIi8+PHBhdGggZD0iTTIsNi40NkExLjA4LDEuMDgsMCwwLDEsMy4xMyw1LjM4aDVBMS4wOCwxLjA4LDAsMCwxLDkuMTgsNi40NmgwQTEuMDgsMS4wOCwwLDAsMSw4LjEsNy41NWgtNUExLjA5LDEuMDksMCwwLDEsMiw2LjQ2WiIgZmlsbD0iIzAwMzA2NyIvPjxwYXRoIGQ9Ik0yLDMuMjRBMS4wOSwxLjA5LDAsMCwxLDMuMTMsMi4xNWg1QTEuMDgsMS4wOCwwLDAsMSw5LjE4LDMuMjRoMEExLjA4LDEuMDgsMCwwLDEsOC4xLDQuMzJoLTVBMS4wOCwxLjA4LDAsMCwxLDIsMy4yNFoiIGZpbGw9IiMwMDMwNjciLz48Y2lyY2xlIGN4PSIzLjE3IiBjeT0iMy4yNCIgcj0iMC43MyIgZmlsbD0iIzUwZTZmZiIvPjxjaXJjbGUgY3g9IjMuMTciIGN5PSI2LjQ2IiByPSIwLjczIiBmaWxsPSIjNTBlNmZmIi8+PHBhdGggZD0iTTE3LjQyLDE0LjM4YTMuMTIsMy4xMiwwLDAsMC0yLjY3LTMsMy45MywzLjkzLDAsMCwwLTQtMy44LDQsNCwwLDAsMC0zLjgzLDIuNjZBMy43LDMuNywwLDAsMCwzLjcsMTMuODMsMy43NywzLjc3LDAsMCwwLDcuNTYsMTcuNWwuMzQsMGg2LjI2bC4xNywwQTMuMTUsMy4xNSwwLDAsMCwxNy40MiwxNC4zOFoiIGZpbGw9InVybCgjYjQ3NzlhZTYtNzRhNS00ODZkLThhYWQtY2QwMTE4NTk3ODVhKSIvPjxyZWN0IHdpZHRoPSIxOCIgaGVpZ2h0PSIxOCIgZmlsbD0ibm9uZSIvPjwvc3ZnPg==;fontSize=64;labelPosition=right;align=left;spacing=20;fontColor=#F0F0F0;" parent="1" vertex="1">
                    <mxGeometry x="280" y="365" width="200" height="200" as="geometry"/>
                </mxCell>
                <mxCell id="0ULI48yKcXkIzvDSihA7-3" value="Resource Group" style="shape=image;verticalLabelPosition=middle;labelBackgroundColor=none;verticalAlign=middle;aspect=fixed;imageAspect=0;image=data:image/svg+xml,PHN2ZyB4bWxucz0iaHR0cDovL3d3dy53My5vcmcvMjAwMC9zdmciIGlkPSJhNjg1Y2M4Yy0zMmJhLTRkNTQtOTFkYS0zYTEyNWNiNThkZWQiIHdpZHRoPSIxOCIgaGVpZ2h0PSIxOCIgdmlld0JveD0iMCAwIDE4IDE4Ij48dGl0bGU+SWNvbi1nZW5lcmFsLTc8L3RpdGxlPjxnPjxnPjxwYXRoIGQ9Ik0uNSwxNS4wOGEuMTYuMTYsMCwwLDAsLjA4LjE0bDEuMTYuNjVMMy43LDE3YS4xNy4xNywwLDAsMCwuMjMtLjA2bC42Ni0xLjEyYS4xNi4xNiwwLDAsMC0uMDYtLjIxbC0yLjMtMS4zYS4xNy4xNywwLDAsMS0uMDgtLjE0VjMuODVhLjE2LjE2LDAsMCwxLC4wOC0uMTRsMi4zLTEuM2EuMTYuMTYsMCwwLDAsLjA2LS4yMUwzLjkzLDEuMDhBLjE3LjE3LDAsMCwwLDMuNywxTDEuNzgsMi4xMWwtMS4yLjY3YS4xNi4xNiwwLDAsMC0uMDguMTRWMTUuMDhaIiBmaWxsPSIjOTQ5NDk0Ii8+PHBhdGggZD0iTTIuMTQsMy43N2wuMDYtLjA2LDIuMy0xLjNhLjE0LjE0LDAsMCwwLC4wNi0uMjFMMy45LDEuMDhBLjE1LjE1LDAsMCwwLDMuNjgsMUwxLjc1LDIuMTEuNTYsMi43OHMtLjA1LDAtLjA2LjA2bC45LjUxWiIgZmlsbD0iI2EzYTNhMyIvPjxwYXRoIGQ9Ik00LjUsMTUuNTlsLTIuMy0xLjNhLjIyLjIyLDAsMCwxLS4wNy0uMDlsLTEuNjIsMSwuMDUsMCwxLjE1LjY1LDIsMS4xMWEuMTUuMTUsMCwwLDAsLjIyLS4wNmwuNjYtMS4xMkEuMTQuMTQsMCwwLDAsNC41LDE1LjU5WiIgZmlsbD0iI2EzYTNhMyIvPjwvZz48cGF0aCBkPSJNMTcuNSwxNS4wOGEuMTYuMTYsMCwwLDEtLjA4LjE0bC0xLjE2LjY1TDE0LjMsMTdhLjE3LjE3LDAsMCwxLS4yMy0uMDZsLS42Ni0xLjEyYS4xNi4xNiwwLDAsMSwuMDYtLjIxbDIuMy0xLjNhLjE3LjE3LDAsMCwwLC4wOC0uMTRWMy44NWEuMTYuMTYsMCwwLDAtLjA4LS4xNGwtMi4zLTEuM2EuMTYuMTYsMCwwLDEtLjA2LS4yMWwuNjYtMS4xMkEuMTcuMTcsMCwwLDEsMTQuMywxbDEuOTIsMS4wOSwxLjIuNjdhLjE2LjE2LDAsMCwxLC4wOC4xNFYxNS4wOFoiIGZpbGw9IiM5NDk0OTQiLz48cGF0aCBkPSJNMTUuODYsMy43N2wtLjA2LS4wNi0yLjMtMS4zYS4xNC4xNCwwLDAsMS0uMDYtLjIxbC42Ni0xLjEyQS4xNS4xNSwwLDAsMSwxNC4zMiwxbDEuOTMsMS4wOSwxLjE5LjY3czAsMCwuMDYuMDZsLS45LjUxWiIgZmlsbD0iI2EzYTNhMyIvPjxwYXRoIGQ9Ik0xMy41LDE1LjU5bDIuMy0xLjNhLjIyLjIyLDAsMCwwLC4wNy0uMDlsMS42MiwxLDAsMC0xLjE1LjY1LTIsMS4xMWEuMTUuMTUsMCwwLDEtLjIyLS4wNmwtLjY2LTEuMTJBLjE0LjE0LDAsMCwxLDEzLjUsMTUuNTlaIiBmaWxsPSIjYTNhM2EzIi8+PHBvbHlnb24gcG9pbnRzPSIxNC4zMSA1LjkzIDE0LjMxIDEyLjA3IDguOTkgMTUuMTYgOC45OSA5LjAxIDE0LjMxIDUuOTMiIGZpbGw9IiMzMmJlZGQiLz48cG9seWdvbiBwb2ludHM9IjE0LjMxIDUuOTMgOSA5LjAyIDMuNjggNS45MyA5IDIuODQgMTQuMzEgNS45MyIgZmlsbD0iIzljZWJmZiIvPjxwb2x5Z29uIHBvaW50cz0iOC45OSA5LjAyIDguOTkgMTUuMTYgMy42OCAxMi4wNyAzLjY4IDUuOTMgOC45OSA5LjAyIiBmaWxsPSIjNTBlNmZmIi8+PHBvbHlnb24gcG9pbnRzPSIzLjY4IDEyLjA3IDguOTkgOS4wMSA4Ljk5IDE1LjE2IDMuNjggMTIuMDciIGZpbGw9IiM5Y2ViZmYiLz48cG9seWdvbiBwb2ludHM9IjE0LjMxIDEyLjA3IDguOTkgOS4wMSA4Ljk5IDE1LjE2IDE0LjMxIDEyLjA3IiBmaWxsPSIjNTBlNmZmIi8+PC9nPjwvc3ZnPg==;fontSize=64;labelPosition=right;align=left;spacing=20;fontColor=#F0F0F0;" parent="1" vertex="1">
                    <mxGeometry x="120" y="130" width="200" height="200" as="geometry"/>
                </mxCell>
                <mxCell id="el2H38QsFk6QhJ0XLffM-7" value="Plan &amp;amp;&lt;br style=&quot;font-size: 32px;&quot;&gt;Apply" style="edgeStyle=orthogonalEdgeStyle;rounded=0;orthogonalLoop=1;jettySize=auto;html=1;fontSize=32;fontColor=#F0F0F0;strokeWidth=5;fontStyle=0;entryX=0;entryY=0.5;entryDx=0;entryDy=0;labelBackgroundColor=#1A1A1A;exitX=1;exitY=0.5;exitDx=0;exitDy=0;strokeColor=#F0F0F0;" parent="1" source="el2H38QsFk6QhJ0XLffM-4" target="el2H38QsFk6QhJ0XLffM-13" edge="1">
                    <mxGeometry relative="1" as="geometry">
                        <mxPoint x="-441" y="400" as="sourcePoint"/>
                        <mxPoint x="-260" y="440" as="targetPoint"/>
                        <Array as="points">
                            <mxPoint x="-350" y="465"/>
                        </Array>
                    </mxGeometry>
                </mxCell>
                <mxCell id="el2H38QsFk6QhJ0XLffM-30" style="edgeStyle=orthogonalEdgeStyle;rounded=0;orthogonalLoop=1;jettySize=auto;html=1;entryX=1;entryY=0.5;entryDx=0;entryDy=0;labelBackgroundColor=#1A1A1A;strokeWidth=5;fontSize=32;fontColor=#f0f0f0;exitX=0;exitY=0.25;exitDx=0;exitDy=0;startArrow=classic;startFill=1;endArrow=none;endFill=0;fillColor=#e3c800;dashed=1;strokeColor=#FFFF00;" parent="1" source="el2H38QsFk6QhJ0XLffM-4" target="el2H38QsFk6QhJ0XLffM-20" edge="1">
                    <mxGeometry relative="1" as="geometry"/>
                </mxCell>
                <mxCell id="el2H38QsFk6QhJ0XLffM-4" value="Terraform" style="shape=image;verticalLabelPosition=bottom;labelBackgroundColor=none;verticalAlign=top;aspect=fixed;imageAspect=0;image=data:image/svg+xml,PHN2ZyB4bWxucz0iaHR0cDovL3d3dy53My5vcmcvMjAwMC9zdmciIHhtbG5zOnhsaW5rPSJodHRwOi8vd3d3LnczLm9yZy8xOTk5L3hsaW5rIiB2aWV3Qm94PSIwIDAgNTggNjYiIGZpbGw9IiNmZmYiIGZpbGwtcnVsZT0iZXZlbm9kZCIgc3Ryb2tlPSIjMDAwIiBzdHJva2UtbGluZWNhcD0icm91bmQiIHN0cm9rZS1saW5lam9pbj0icm91bmQiPjx1c2UgeGxpbms6aHJlZj0iI0EiIHg9Ii41IiB5PSIuNSIvPjxzeW1ib2wgaWQ9IkEiIG92ZXJmbG93PSJ2aXNpYmxlIj48ZyBzdHJva2U9Im5vbmUiPjxwYXRoIGQ9Ik0zNi45MDYgNjRWNDMuODAyTDE5LjQxMiAzMy43djIwLjE5OHptMC0yMi40MDVMMTkuNDEyIDMxLjQ5VjExLjI4NWwxNy40OTQgMTAuMTAzeiIgZmlsbD0iIzVjNGVlNSIvPjxwYXRoIGQ9Ik01Ni4zMzYgMzEuNDgzVjExLjI3N0wzOC44MzMgMjEuMzh2MjAuMjA2eiIgZmlsbD0iIzQwNDBiMiIvPjxwYXRoIGQ9Ik0xNy40OTQgMzAuMzFWMTAuMTAzTDAgMHYyMC4yMDZ6IiBmaWxsPSIjNWM0ZWU1Ii8+PC9nPjwvc3ltYm9sPjwvc3ZnPg==;fontSize=32;fontColor=#F0F0F0;" parent="1" vertex="1">
                    <mxGeometry x="-659.9999999999998" y="141.2" width="200" height="227.59" as="geometry"/>
                </mxCell>
                <mxCell id="el2H38QsFk6QhJ0XLffM-25" value="Push" style="edgeStyle=orthogonalEdgeStyle;rounded=0;orthogonalLoop=1;jettySize=auto;html=1;labelBackgroundColor=#1A1A1A;strokeWidth=5;fontSize=32;fontColor=#f0f0f0;strokeColor=#F0F0F0;" parent="1" source="el2H38QsFk6QhJ0XLffM-5" target="el2H38QsFk6QhJ0XLffM-24" edge="1">
                    <mxGeometry relative="1" as="geometry"/>
                </mxCell>
                <mxCell id="el2H38QsFk6QhJ0XLffM-26" value="Run" style="edgeStyle=orthogonalEdgeStyle;rounded=0;orthogonalLoop=1;jettySize=auto;html=1;labelBackgroundColor=#1A1A1A;strokeWidth=5;fontSize=32;fontColor=#f0f0f0;strokeColor=#F0F0F0;entryX=0;entryY=0.5;entryDx=0;entryDy=0;" parent="1" source="el2H38QsFk6QhJ0XLffM-5" target="el2H38QsFk6QhJ0XLffM-23" edge="1">
                    <mxGeometry relative="1" as="geometry"/>
                </mxCell>
                <mxCell id="el2H38QsFk6QhJ0XLffM-5" value="Engineer" style="shape=image;verticalLabelPosition=bottom;labelBackgroundColor=#1A1A1A;verticalAlign=top;aspect=fixed;imageAspect=0;image=data:image/svg+xml,PHN2ZyB4bWxuczp4PSJodHRwOi8vbnMuYWRvYmUuY29tL0V4dGVuc2liaWxpdHkvMS4wLyIgeG1sbnM6aT0iaHR0cDovL25zLmFkb2JlLmNvbS9BZG9iZUlsbHVzdHJhdG9yLzEwLjAvIiB4bWxuczpncmFwaD0iaHR0cDovL25zLmFkb2JlLmNvbS9HcmFwaHMvMS4wLyIgeG1sbnM9Imh0dHA6Ly93d3cudzMub3JnLzIwMDAvc3ZnIiB4bWxuczp4bGluaz0iaHR0cDovL3d3dy53My5vcmcvMTk5OS94bGluayIgaGVpZ2h0PSIxMDBweCIgd2lkdGg9IjEwMHB4IiBmaWxsPSIjRTY3NzAwIiB2ZXJzaW9uPSIxLjEiIHg9IjBweCIgeT0iMHB4IiB2aWV3Qm94PSIwIDAgMTAwIDEwMCIgc3R5bGU9ImVuYWJsZS1iYWNrZ3JvdW5kOm5ldyAwIDAgMTAwIDEwMDsiIHhtbDpzcGFjZT0icHJlc2VydmUiPjxnPjxnIGk6ZXh0cmFuZW91cz0ic2VsZiI+PGc+PHBhdGggZD0iTTk1LjcsNy41SDU5LjVjLTEsMC0xLjgsMC44LTEuOCwxLjh2MjUuOGMwLDEsMC44LDEuOCwxLjgsMS44aDE0LjV2My4yaC0zLjJjLTAuNSwwLTAuOSwwLjQtMC45LDAuOXYxLjcgICAgIGMwLDAuNSwwLjQsMC45LDAuOSwwLjloMTMuNWMwLjUsMCwwLjktMC40LDAuOS0wLjlWNDFjMC0wLjUtMC40LTAuOS0wLjktMC45aC0zLjJ2LTMuMmgxNC41YzEsMCwxLjgtMC44LDEuOC0xLjhWOS4zICAgICBDOTcuNSw4LjMsOTYuNyw3LjUsOTUuNyw3LjV6IE03Ny42LDM1Yy0wLjcsMC0xLjItMC42LTEuMi0xLjJjMC0wLjcsMC42LTEuMiwxLjItMS4yYzAuNywwLDEuMiwwLjYsMS4yLDEuMiAgICAgQzc4LjksMzQuNCw3OC4zLDM1LDc3LjYsMzV6IE05NC4zLDMwLjZINjFWMTAuN2gzMy4zVjMwLjZ6Ii8+PHBhdGggZD0iTTcwLjUsMjYuNGMwLjIsMC4yLDAuNiwwLjIsMC44LDBsMS40LTEuNGMwLjItMC4yLDAuMi0wLjYsMC0wLjhsLTMuNS0zLjVsMy41LTMuNWMwLjItMC4yLDAuMi0wLjYsMC0wLjhsLTEuNC0xLjQgICAgIGMtMC4yLTAuMi0wLjYtMC4yLTAuOCwwbC01LjMsNS4zYy0wLjIsMC4yLTAuMiwwLjYsMCwwLjhMNzAuNSwyNi40eiIvPjxwYXRoIGQ9Ik04Mi41LDI1bDEuNCwxLjRjMC4yLDAuMiwwLjYsMC4yLDAuOCwwbDUuMy01LjNjMC4yLTAuMiwwLjItMC42LDAtMC44bC01LjMtNS4zYy0wLjItMC4yLTAuNi0wLjItMC44LDBsLTEuNCwxLjQgICAgIGMtMC4yLDAuMi0wLjIsMC42LDAsMC44bDMuNSwzLjVsLTMuNSwzLjVDODIuMywyNC40LDgyLjMsMjQuOCw4Mi41LDI1eiIvPjxwYXRoIGQ9Ik03NC43LDI3LjJoMS43YzAuMiwwLDAuNC0wLjEsMC41LTAuNGw0LjEtMTEuOWMwLjEtMC40LTAuMS0wLjctMC41LTAuN2gtMS43Yy0wLjIsMC0wLjQsMC4yLTAuNSwwLjRsLTQuMSwxMS45ICAgICBDNzQuMSwyNi44LDc0LjQsMjcuMiw3NC43LDI3LjJ6Ii8+PHBhdGggZD0iTTQ5LjgsNjAuOGMtMC4zLTIuMy0yLjItNC4xLTQuNi00LjFjMCwwLDAsMCwwLDBsLTExLjgsMGwtMS4yLTE2LjJjMy4zLDIsNywzLjEsMTAuOSwzLjFoOGMyLjEsMCwzLjgtMS43LDMuOC0zLjggICAgIHMtMS43LTMuOC0zLjgtMy44aC04Yy0yLjcsMC01LjItMC44LTcuNS0yLjJsLTcuNi01Yy0xLjQtMS0zLjItMS42LTUtMS42YzAsMCwwLDAsMCwwbC0xLjQsMGMtMi43LDAtNS4yLDEuMi03LDMuMiAgICAgYy0xLjcsMi0yLjUsNC43LTIuMSw3LjRMMTYuMyw2MmMwLjMsMi4yLDIuMywzLjksNC41LDMuOWMwLDAsMCwwLDAsMGwyMC4zLDBsMi43LDI1LjJjMC4zLDIuNCwyLjIsNC4xLDQuNiw0LjEgICAgIGMwLjIsMCwwLjMsMCwwLjUsMGMyLjUtMC4zLDQuMy0yLjUsNC4xLTUuMUw0OS44LDYwLjh6Ii8+PHBhdGggZD0iTTM1LDY5LjdIMTkuNWMtMy41LDAtNi40LTIuNS02LjktNS45TDguNiwzOGMtMC4zLTEuNy0xLjgtMi44LTMuNS0yLjZjLTEuNywwLjMtMi44LDEuOC0yLjYsMy41bDQsMjUuOCAgICAgYzEsNi40LDYuNSwxMS4xLDEzLDExLjFIMzVjMS43LDAsMy4xLTEuNCwzLjEtMy4xQzM4LjEsNzEsMzYuNyw2OS43LDM1LDY5Ljd6Ii8+PHBhdGggZD0iTTk0LjQsNDcuMUg0Mi45Yy0xLjcsMC0zLjEsMS40LTMuMSwzLjFzMS40LDMuMSwzLjEsMy4xaDI2LjZ2MzYuNGgtNi4yYy0xLjcsMC0zLjEsMS40LTMuMSwzLjFzMS40LDMuMSwzLjEsMy4xaDMxLjIgICAgIGMxLjcsMCwzLjEtMS40LDMuMS0zLjFWNTAuMkM5Ny41LDQ4LjUsOTYuMSw0Ny4xLDk0LjQsNDcuMXoiLz48Y2lyY2xlIGN4PSIyMi4zIiBjeT0iMTQuMyIgcj0iMTAiLz48L2c+PC9nPjwvZz48L3N2Zz4=;fontSize=32;fontColor=#F0F0F0;" parent="1" vertex="1">
                    <mxGeometry x="-1750" y="130" width="200" height="200" as="geometry"/>
                </mxCell>
                <mxCell id="el2H38QsFk6QhJ0XLffM-8" style="edgeStyle=orthogonalEdgeStyle;rounded=0;orthogonalLoop=1;jettySize=auto;html=1;entryX=0;entryY=0.5;entryDx=0;entryDy=0;strokeWidth=5;fontSize=32;fontColor=#F0F0F0;exitX=1;exitY=0.5;exitDx=0;exitDy=0;strokeColor=#F0F0F0;" parent="1" source="el2H38QsFk6QhJ0XLffM-13" target="0ULI48yKcXkIzvDSihA7-3" edge="1">
                    <mxGeometry relative="1" as="geometry">
                        <mxPoint x="-60" y="465" as="sourcePoint"/>
                        <Array as="points">
                            <mxPoint x="40" y="465"/>
                            <mxPoint x="40" y="230"/>
                        </Array>
                    </mxGeometry>
                </mxCell>
                <mxCell id="el2H38QsFk6QhJ0XLffM-9" style="edgeStyle=orthogonalEdgeStyle;rounded=0;orthogonalLoop=1;jettySize=auto;html=1;strokeWidth=5;fontSize=32;fontColor=#F0F0F0;exitX=1;exitY=0.5;exitDx=0;exitDy=0;strokeColor=#F0F0F0;" parent="1" source="el2H38QsFk6QhJ0XLffM-13" target="0ULI48yKcXkIzvDSihA7-2" edge="1">
                    <mxGeometry relative="1" as="geometry">
                        <mxPoint x="-60" y="465" as="sourcePoint"/>
                    </mxGeometry>
                </mxCell>
                <mxCell id="el2H38QsFk6QhJ0XLffM-10" style="edgeStyle=orthogonalEdgeStyle;rounded=0;orthogonalLoop=1;jettySize=auto;html=1;entryX=0;entryY=0.5;entryDx=0;entryDy=0;strokeWidth=5;fontSize=32;fontColor=#F0F0F0;exitX=1;exitY=0.5;exitDx=0;exitDy=0;strokeColor=#F0F0F0;" parent="1" source="el2H38QsFk6QhJ0XLffM-13" target="0ULI48yKcXkIzvDSihA7-1" edge="1">
                    <mxGeometry relative="1" as="geometry">
                        <mxPoint x="-60" y="465" as="sourcePoint"/>
                    </mxGeometry>
                </mxCell>
                <mxCell id="el2H38QsFk6QhJ0XLffM-13" value="" style="shape=image;verticalLabelPosition=bottom;labelBackgroundColor=#ffffff;verticalAlign=top;aspect=fixed;imageAspect=0;image=data:image/svg+xml,PHN2ZyB4bWxucz0iaHR0cDovL3d3dy53My5vcmcvMjAwMC9zdmciIHhtbG5zOnhsaW5rPSJodHRwOi8vd3d3LnczLm9yZy8xOTk5L3hsaW5rIiBoZWlnaHQ9IjEwMHB4IiB3aWR0aD0iMTAwcHgiIGZpbGw9IiMzQkIzMDAiIHZlcnNpb249IjEuMSIgeD0iMHB4IiB5PSIwcHgiIHZpZXdCb3g9IjAgMCAxMDAgMTAwIiBzdHlsZT0iZW5hYmxlLWJhY2tncm91bmQ6bmV3IDAgMCAxMDAgMTAwOyIgeG1sOnNwYWNlPSJwcmVzZXJ2ZSI+PHBhdGggZD0iTTk4LDUxYzAsMTEuNTgtOS40MjIsMjEtMjEsMjFINjJjLTEuNjU4LDAtMy0xLjM0My0zLTNzMS4zNDItMywzLTNoMTVjOC4yNzEsMCwxNS02LjcyOSwxNS0xNXMtNi43MjktMTUtMTUtMTUgIGgtM2MtMS42NTgsMC0zLTEuMzQzLTMtM2MwLTExLjU4LTkuNDIyLTIxLTIxLTIxcy0yMSw5LjQyLTIxLDIxYzAsMS42NTctMS4zNDIsMy0zLDNoLTNjLTguMjcxLDAtMTUsNi43MjktMTUsMTVzNi43MjksMTUsMTUsMTVoMTUgIGMxLjY1OCwwLDMsMS4zNDMsMywzcy0xLjM0MiwzLTMsM0gyM0MxMS40MjIsNzIsMiw2Mi41OCwyLDUxczkuNDIyLTIxLDIxLTIxaDAuMTY3QzI0LjY2NCwxNi41MTksMzYuMTI1LDYsNTAsNiAgczI1LjMzNiwxMC41MTksMjYuODMzLDI0SDc3Qzg4LjU3OCwzMCw5OCwzOS40Miw5OCw1MXogTTU5Ljg3OSw1OS4xMjFDNjAuNDY1LDU5LjcwNyw2MS4yMzIsNjAsNjIsNjBzMS41MzUtMC4yOTMsMi4xMjEtMC44NzkgIGMxLjE3Mi0xLjE3MiwxLjE3Mi0zLjA3LDAtNC4yNDJsLTEyLTEyYy0xLjE3Mi0xLjE3Mi0zLjA3LTEuMTcyLTQuMjQyLDBsLTEyLDEyYy0xLjE3MiwxLjE3Mi0xLjE3MiwzLjA3LDAsNC4yNDIgIHMzLjA3LDEuMTcyLDQuMjQyLDBMNDcsNTIuMjQyVjkzYzAsMS42NTcsMS4zNDIsMywzLDNzMy0xLjM0MywzLTNWNTIuMjQyTDU5Ljg3OSw1OS4xMjF6Ii8+PC9zdmc+;" parent="1" vertex="1">
                    <mxGeometry x="-240" y="365" width="200" height="200" as="geometry"/>
                </mxCell>
                <mxCell id="el2H38QsFk6QhJ0XLffM-19" value="Upload" style="edgeStyle=orthogonalEdgeStyle;rounded=0;orthogonalLoop=1;jettySize=auto;html=1;strokeWidth=5;fontSize=32;entryX=0;entryY=0.5;entryDx=0;entryDy=0;strokeColor=#F0F0F0;labelBackgroundColor=#1A1A1A;fontColor=#F0F0F0;" parent="1" source="el2H38QsFk6QhJ0XLffM-17" target="el2H38QsFk6QhJ0XLffM-13" edge="1">
                    <mxGeometry relative="1" as="geometry"/>
                </mxCell>
                <mxCell id="el2H38QsFk6QhJ0XLffM-17" value="Azure CLI" style="shape=image;verticalLabelPosition=bottom;labelBackgroundColor=none;verticalAlign=top;aspect=fixed;imageAspect=0;image=data:image/svg+xml,PHN2ZyB4bWxucz0iaHR0cDovL3d3dy53My5vcmcvMjAwMC9zdmciIGhlaWdodD0iMTAwcHgiIHdpZHRoPSIxMDBweCIgZmlsbD0iI0QzRDNEMyIgdmlld0JveD0iMCAwIDMyIDMyIiB4PSIwcHgiIHk9IjBweCI+PHRpdGxlPnRlcm1pbmFsLCBjb2RpbmcsIGxpbnV4LGNvbXB1dGluZyxkZXZlbG9wbWVudCw8L3RpdGxlPjxnIGRhdGEtbmFtZT0iTGF5ZXIgOSI+PHBhdGggZD0iTTI2LjY5LDZINS4zMUEzLjMyLDMuMzIsMCwwLDAsMiw5LjMxVjIyLjY5QTMuMzIsMy4zMiwwLDAsMCw1LjMxLDI2SDI2LjY5QTMuMzIsMy4zMiwwLDAsMCwzMCwyMi42OVY5LjMxQTMuMzIsMy4zMiwwLDAsMCwyNi42OSw2Wk0xNC44NiwxNi44bC01LjI1LDRBMS4wOCwxLjA4LDAsMCwxLDksMjFhMSwxLDAsMCwxLS44LS4zOSwxLDEsMCwwLDEsLjE5LTEuNDFMMTIuNiwxNiw4LjM5LDEyLjhhMSwxLDAsMSwxLDEuMjItMS42bDUuMjUsNGExLDEsMCwwLDEsMCwxLjZaTTIzLDIxSDE2Ljg4YTEsMSwwLDEsMSwwLTJIMjNhMSwxLDAsMCwxLDAsMloiLz48L2c+PC9zdmc+;fontSize=32;spacingTop=-20;fontColor=#F0F0F0;" parent="1" vertex="1">
                    <mxGeometry x="-660" y="550" width="200" height="200" as="geometry"/>
                </mxCell>
                <mxCell id="el2H38QsFk6QhJ0XLffM-31" style="edgeStyle=orthogonalEdgeStyle;rounded=0;orthogonalLoop=1;jettySize=auto;html=1;entryX=0;entryY=0.75;entryDx=0;entryDy=0;labelBackgroundColor=#1A1A1A;startArrow=none;startFill=0;endArrow=classic;endFill=1;strokeWidth=5;fontSize=32;fontColor=#f0f0f0;dashed=1;fillColor=#e3c800;strokeColor=#FFFF00;" parent="1" target="el2H38QsFk6QhJ0XLffM-17" edge="1">
                    <mxGeometry relative="1" as="geometry">
                        <mxPoint x="-840" y="700" as="sourcePoint"/>
                    </mxGeometry>
                </mxCell>
                <mxCell id="el2H38QsFk6QhJ0XLffM-36" style="edgeStyle=orthogonalEdgeStyle;rounded=0;orthogonalLoop=1;jettySize=auto;html=1;entryX=1;entryY=0.75;entryDx=0;entryDy=0;dashed=1;labelBackgroundColor=none;startArrow=none;startFill=0;endArrow=classic;endFill=1;strokeWidth=5;fontSize=32;noLabel=1;fontColor=none;strokeColor=#FFFF00;exitX=0.001;exitY=0.777;exitDx=0;exitDy=0;exitPerimeter=0;" parent="1" source="el2H38QsFk6QhJ0XLffM-21" target="el2H38QsFk6QhJ0XLffM-24" edge="1">
                    <mxGeometry relative="1" as="geometry"/>
                </mxCell>
                <mxCell id="el2H38QsFk6QhJ0XLffM-37" style="edgeStyle=orthogonalEdgeStyle;rounded=0;orthogonalLoop=1;jettySize=auto;html=1;entryX=1;entryY=0.25;entryDx=0;entryDy=0;dashed=1;labelBackgroundColor=none;startArrow=classic;startFill=1;endArrow=classic;endFill=1;strokeColor=#FFFF00;strokeWidth=5;fontSize=32;fontColor=none;exitX=-0.006;exitY=0.212;exitDx=0;exitDy=0;exitPerimeter=0;" parent="1" source="el2H38QsFk6QhJ0XLffM-21" target="el2H38QsFk6QhJ0XLffM-5" edge="1">
                    <mxGeometry relative="1" as="geometry">
                        <mxPoint x="-1130" y="180" as="sourcePoint"/>
                    </mxGeometry>
                </mxCell>
                <mxCell id="el2H38QsFk6QhJ0XLffM-20" value="Cloud&#10;Infrastructure" style="shape=image;verticalLabelPosition=bottom;labelBackgroundColor=none;verticalAlign=top;aspect=fixed;imageAspect=0;image=data:image/svg+xml,PHN2ZyB4bWxucz0iaHR0cDovL3d3dy53My5vcmcvMjAwMC9zdmciIGhlaWdodD0iMTAwcHgiIHdpZHRoPSIxMDBweCIgZmlsbD0iI0E0MDBGRiIgdmlld0JveD0iMCAwIDY0IDY0IiB4PSIwcHgiIHk9IjBweCI+PHRpdGxlPlN0YXRpb25lcnktdG9vbC1FZHVjYXRpb24tU2Nob29sPC90aXRsZT48Zz48cGF0aCBkPSJNMzIsMjZoMVYyMEgzMXY1QTEsMSwwLDAsMCwzMiwyNloiLz48cGF0aCBkPSJNNDEsMjBIMzV2Nmg2Wm0tMiw0SDM3VjIyaDJaIi8+PHJlY3QgeD0iNDgiIHk9IjYiIHdpZHRoPSI2IiBoZWlnaHQ9IjMiLz48cmVjdCB4PSI0OCIgeT0iMTEiIHdpZHRoPSIyIiBoZWlnaHQ9IjIwIi8+PGNpcmNsZSBjeD0iMjIiIGN5PSIzNSIgcj0iMiIvPjxwYXRoIGQ9Ik04LDUyVjEwSDZhMiwyLDAsMCwwLTIsMlY1Mi41MzdBMy45NywzLjk3LDAsMCwxLDYsNTJaIi8+PHJlY3QgeD0iNTIiIHk9IjExIiB3aWR0aD0iMiIgaGVpZ2h0PSIyMCIvPjxwb2x5Z29uIHBvaW50cz0iNTEgMzcuNzY0IDUzLjM4MiAzMyA0OC42MTggMzMgNTEgMzcuNzY0Ii8+PHBvbHlnb24gcG9pbnRzPSI1MiA1MSA1MCA1MSA1MCA0OCA0OCA0OCA0OCA1MCA0NiA1MCA0NiA0OCA0NCA0OCA0NCA1MSA0MiA1MSA0MiA0OCA0MCA0OCA0MCA1MCAzOCA1MCAzOCA0OCAzNiA0OCAzNiA1MSAzNCA1MSAzNCA0OCAzMiA0OCAzMiA1MCAzMCA1MCAzMCA0OCAyOCA0OCAyOCA1MSAyNiA1MSAyNiA0OCAyNCA0OCAyNCA1MCAyMiA1MCAyMiA0OCAyMCA0OCAyMCA1MSAxOCA1MSAxOCA0OCAxNiA0OCAxNiA1MyA1NCA1MyA1NCA0OCA1MiA0OCA1MiA1MSIvPjxwYXRoIGQ9Ik0xNiwyMC40MTRWNDFIMzYuNTg2Wk0yMiwzOWE0LDQsMCwxLDEsNC00QTQsNCwwLDAsMSwyMiwzOVoiLz48cGF0aCBkPSJNNTYsMTVWMzJoMGExLDEsMCwwLDEtLjEuNDQ3bC00LDhhMSwxLDAsMCwxLTEuNzksMGwtNC04QTEsMSwwLDAsMSw0NiwzMmgwVjE1SDEwVjUzYTEsMSwwLDAsMS0xLDFINmEyLDIsMCwwLDAsMCw0SDYwVjE1Wk0yOSwxOWExLDEsMCwwLDEsMS0xSDQyYTEsMSwwLDAsMSwxLDF2OGExLDEsMCwwLDEtMSwxSDMyYTMsMywwLDAsMS0zLTNaTTE0LDE4YTEsMSwwLDAsMSwxLjcwNy0uNzA3bDI0LDI0QTEsMSwwLDAsMSwzOSw0M0gxNWExLDEsMCwwLDEtMS0xWk01Niw1NGExLDEsMCwwLDEtMSwxSDE1YTEsMSwwLDAsMS0xLTFWNDdhMSwxLDAsMCwxLDEtMUg1NWExLDEsMCwwLDEsMSwxWiIvPjwvZz48L3N2Zz4=;fontSize=32;fontColor=#F0F0F0;" parent="1" vertex="1">
                    <mxGeometry x="-1050" y="97.99999999999999" width="200" height="200" as="geometry"/>
                </mxCell>
                <mxCell id="el2H38QsFk6QhJ0XLffM-28" style="edgeStyle=orthogonalEdgeStyle;rounded=0;orthogonalLoop=1;jettySize=auto;html=1;labelBackgroundColor=#1A1A1A;strokeWidth=5;fontSize=32;fontColor=#f0f0f0;strokeColor=#F0F0F0;" parent="1" source="el2H38QsFk6QhJ0XLffM-23" target="el2H38QsFk6QhJ0XLffM-4" edge="1">
                    <mxGeometry relative="1" as="geometry">
                        <Array as="points">
                            <mxPoint x="-750" y="435"/>
                            <mxPoint x="-750" y="255"/>
                        </Array>
                    </mxGeometry>
                </mxCell>
                <mxCell id="el2H38QsFk6QhJ0XLffM-23" value="Docker" style="shape=image;verticalLabelPosition=bottom;labelBackgroundColor=none;verticalAlign=top;aspect=fixed;imageAspect=0;image=data:image/svg+xml,PHN2ZyB4bWxucz0iaHR0cDovL3d3dy53My5vcmcvMjAwMC9zdmciIHhtbG5zOnhsaW5rPSJodHRwOi8vd3d3LnczLm9yZy8xOTk5L3hsaW5rIiBoZWlnaHQ9IjUxMnB4IiBzdHlsZT0iZW5hYmxlLWJhY2tncm91bmQ6bmV3IDAgMCA1MTIgNTEyOyIgdmVyc2lvbj0iMS4xIiB2aWV3Qm94PSIwIDAgNTEyIDUxMiIgd2lkdGg9IjUxMnB4IiB4bWw6c3BhY2U9InByZXNlcnZlIj48ZyBpZD0iX3gzOV83LWRvY2tlciI+PGc+PGc+PHJlY3QgaGVpZ2h0PSI0My4xOTMiIHN0eWxlPSJmaWxsOiMwOTlDRUM7IiB3aWR0aD0iNDcuNTA2IiB4PSIyMjkuOTk5IiB5PSIxNDcuMjI1Ii8+PHJlY3QgaGVpZ2h0PSI0Mi42OSIgc3R5bGU9ImZpbGw6IzA5OUNFQzsiIHdpZHRoPSI0Ny41MDYiIHg9IjIyOS45OTkiIHk9IjE5OS4xMTUiLz48cmVjdCBoZWlnaHQ9IjQzLjE5MyIgc3R5bGU9ImZpbGw6IzA5OUNFQzsiIHdpZHRoPSI0Ny41MDYiIHg9IjE3My44NjkiIHk9IjE0Ny4yMjUiLz48cmVjdCBoZWlnaHQ9IjQyLjY5MSIgc3R5bGU9ImZpbGw6IzA5OUNFQzsiIHdpZHRoPSI0Ny41MDciIHg9IjI4Ni4yIiB5PSIxOTkuMDQzIi8+PHJlY3QgaGVpZ2h0PSI0My42MjUiIHN0eWxlPSJmaWxsOiMwOTlDRUM7IiB3aWR0aD0iNDcuNTA2IiB4PSIyMjkuOTk5IiB5PSI5NC45NzUiLz48cmVjdCBoZWlnaHQ9IjQzLjE5MyIgc3R5bGU9ImZpbGw6IzA5OUNFQzsiIHdpZHRoPSI0Ny41MDUiIHg9IjExNy43MzgiIHk9IjE0Ny4yMjUiLz48cmVjdCBoZWlnaHQ9IjQyLjY5MSIgc3R5bGU9ImZpbGw6IzA5OUNFQzsiIHdpZHRoPSI0Ny41MDYiIHg9IjE3My44NjkiIHk9IjE5OS4wNDMiLz48cGF0aCBkPSJNNDc2LjQ0MSwyMTkuMDk1Yy0xMC4zNS02Ljk3Mi0zNC4yMS05LjQ4Ny01Mi41MzctNi4wMzYgICAgIGMtMi4zNzEtMTcuMjQ5LTEyLjAwMy0zMi4yNy0yOS41MzgtNDUuNzgybC0xMC4wNjItNi42ODVsLTYuNjg1LDEwLjA2MmMtMTMuMjI1LDE5Ljk4LTE2LjgxNyw1Mi44OTYtMi42NTgsNzQuNjAyICAgICBjLTYuMjUyLDMuMzc3LTE4LjU0NSw3Ljk3OC0zNC43ODYsNy42ODlIMjcuNzU3Yy02LjI1MiwzNi41MTEsNC4xNjksODMuOTQ1LDMxLjYyNCwxMTYuNTAxICAgICBjMjYuNjYzLDMxLjU1MSw2Ni42MjMsNDcuNTc5LDExOC44NzIsNDcuNTc5YzExMy4xMjQsMCwxOTYuODUxLTUyLjEwNCwyMzYuMDIxLTE0Ni43NmMxNS4zODEsMC4yODgsNDguNTg0LDAuMDczLDY1LjYxOC0zMi40ODMgICAgIGMxLjA3OC0xLjc5Nyw0Ljc0My05LjQ4OCw2LjEwNy0xMi4yOTFMNDc2LjQ0MSwyMTkuMDk1eiIgc3R5bGU9ImZpbGw6IzA5OUNFQzsiLz48cG9seWdvbiBwb2ludHM9IjEwOS4xODYsMTk5LjA0MyAxMDkuMTEzLDE5OS4wNDMgNjEuNjgsMTk5LjA0MyA2MS42OCwyNDEuNzM0IDEwOS4xODYsMjQxLjczNCAgICAiIHN0eWxlPSJmaWxsOiMwOTlDRUM7Ii8+PHJlY3QgaGVpZ2h0PSI0Mi42OTEiIHN0eWxlPSJmaWxsOiMwOTlDRUM7IiB3aWR0aD0iNDcuNTA1IiB4PSIxMTcuNzM4IiB5PSIxOTkuMDQzIi8+PC9nPjwvZz48L2c+PGcgaWQ9IkxheWVyXzEiLz48L3N2Zz4=;fontSize=32;fontColor=#F0F0F0;" parent="1" vertex="1">
                    <mxGeometry x="-1420" y="335" width="200" height="200" as="geometry"/>
                </mxCell>
                <mxCell id="el2H38QsFk6QhJ0XLffM-27" value="Run" style="edgeStyle=orthogonalEdgeStyle;rounded=0;orthogonalLoop=1;jettySize=auto;html=1;labelBackgroundColor=#1A1A1A;strokeWidth=5;fontSize=32;fontColor=#f0f0f0;strokeColor=#F0F0F0;" parent="1" source="el2H38QsFk6QhJ0XLffM-24" target="el2H38QsFk6QhJ0XLffM-23" edge="1">
                    <mxGeometry relative="1" as="geometry"/>
                </mxCell>
                <mxCell id="el2H38QsFk6QhJ0XLffM-24" value="GitHub&#10;Source Control&#10;&amp; Actions" style="shape=image;verticalLabelPosition=bottom;labelBackgroundColor=none;verticalAlign=top;aspect=fixed;imageAspect=0;image=data:image/png,iVBORw0KGgoAAAANSUhEUgAAAHgAAAB4CAYAAAA5ZDbSAAAAGXRFWHRTb2Z0d2FyZQBBZG9iZSBJbWFnZVJlYWR5ccllPAAAAyRpVFh0WE1MOmNvbS5hZG9iZS54bXAAAAAAADw/eHBhY2tldCBiZWdpbj0i77u/IiBpZD0iVzVNME1wQ2VoaUh6cmVTek5UY3prYzlkIj8+IDx4OnhtcG1ldGEgeG1sbnM6eD0iYWRvYmU6bnM6bWV0YS8iIHg6eG1wdGs9IkFkb2JlIFhNUCBDb3JlIDUuNS1jMDIxIDc5LjE1NDkxMSwgMjAxMy8xMC8yOS0xMTo0NzoxNiAgICAgICAgIj4gPHJkZjpSREYgeG1sbnM6cmRmPSJodHRwOi8vd3d3LnczLm9yZy8xOTk5LzAyLzIyLXJkZi1zeW50YXgtbnMjIj4gPHJkZjpEZXNjcmlwdGlvbiByZGY6YWJvdXQ9IiIgeG1sbnM6eG1wTU09Imh0dHA6Ly9ucy5hZG9iZS5jb20veGFwLzEuMC9tbS8iIHhtbG5zOnN0UmVmPSJodHRwOi8vbnMuYWRvYmUuY29tL3hhcC8xLjAvc1R5cGUvUmVzb3VyY2VSZWYjIiB4bWxuczp4bXA9Imh0dHA6Ly9ucy5hZG9iZS5jb20veGFwLzEuMC8iIHhtcE1NOkRvY3VtZW50SUQ9InhtcC5kaWQ6RERCMUIwQTM4NkNFMTFFM0FBNTJFRTMzNTJEMUJDNDYiIHhtcE1NOkluc3RhbmNlSUQ9InhtcC5paWQ6RERCMUIwQTI4NkNFMTFFM0FBNTJFRTMzNTJEMUJDNDYiIHhtcDpDcmVhdG9yVG9vbD0iQWRvYmUgUGhvdG9zaG9wIENTNiAoTWFjaW50b3NoKSI+IDx4bXBNTTpEZXJpdmVkRnJvbSBzdFJlZjppbnN0YW5jZUlEPSJ4bXAuaWlkOkU1MTc4QTMyOTlBMDExRTI5QTE1QkMxMDQ2QTg5MDREIiBzdFJlZjpkb2N1bWVudElEPSJ4bXAuZGlkOjJBNDE0QUJDOTlBMTExRTI5QTE1QkMxMDQ2QTg5MDREIi8+IDwvcmRmOkRlc2NyaXB0aW9uPiA8L3JkZjpSREY+IDwveDp4bXBtZXRhPiA8P3hwYWNrZXQgZW5kPSJyIj8+8kSqyAAADD5JREFUeNrsXQ2QlVUZfllYUBe2YCuQFNel9Q9EcVEQSA3xB2pTSVcESjELnZomBW0ya5w0m1GyzKSmtEYDc6hGohRDrUGQZUko0EARCAXK+FEwXFz2yvY+fO/d+fbu/fm++533+7n3PDPPwC6Xc77zPvc7P+95z3t6dHR0kEXpoleJtGMwcwTzE8w6Zi1zELNG2JfZJ+P/tDEPMPcK32JuY25lbmauZ/476YbpkcA3+BjmucxxwlHMAUp1vc18ifmisJnZagU2jyHMKcxJzPOzvI1hAW/9MuYS5pPMN6zAxeNjzOnMq5mjY/qMLcyFzPnMXVZgb7iQOYt5ObMyIT1hO/MPzJ8xn7cCZ5/sTWXeKpOlJAOTs/uYTzBT5S4whJ3BvIM5tMRWKFuYd0v3nSpHgT/NnMs8pcSXoq8xZzOfKheBT2I+wLy0zHwOzzC/LoKHhooQ68KE6XYZo8pNXJI2rxMbVJbaG3wa83HmGWRBIvQ05oakv8E9mF9hrrHidsEZYpOvio0S+QbD//tL5lVWz7z4HXMmOX7xxAhcz1wkXbNFYWxkXsZ8PQld9HjmKiuuL5wqNhsfd4GbyHHVDbCa+cYAsV1TXAXGOPIbZm+rVdHoLTa8Pm4C3yQTqgqrkRFNHhGbxmKSNVPEtTCPLwa1bVCBm6RLsW+uDg4zryFnzzl0gcfLpMCOubo4RM4e+YowBa6Xab2dLYcDxIaNKWadXIzA8FCtlrWbRXiAM+Qc8unx8jt2wm/6KytuJDhVbN9DU2BsHFwZ8EH3keNof1n+XurYJ21Fm/cHLOtK0UCli4brcS0FD1n9DHWNbjhOJhHYL4U/9uiEC3qQnAC8Z2QSusP1b43MxQHLR+huA/OfJgXGBvXfKPiWHyYLOHHQnuPfq8mJ0UJUZdKC7/CWIqoSMVjv5rHjf5n9A9aF/eSz89jRdxd9G5nZz11S4KFgmHlSF4LcWxIg7Gp51hHy7O/m+Wy72CAoYJ9vmBqDT2Z+25AxXvDxWXRxOKLyOXLOC8UNW2VMHCPP6hXLDdV/h2gTuIv+M/NiQw/VIOO4X2DcnyNftFxzgDdkXHqVuZOcg2MgDpa9J2Njm6s8jPVV5BxOGyz8ODlRnsOYJ+QZA+9h3st8v0gbvGTInkuZlwQRGKGtfzL0MO1i0PYAZcDBAkf8cOZK6RGWy/hnOiIC6/3TyfHYnUfOQTd8gW6gYJGRlfKFMxV4lzlp9SxwL2nQSYYe5M08b4XftTh4OOQuOT2cmah3u6weTOB1WeGk/I7BMwyKC7xlqJyOCMRNC2uq3v8YfK560crXJKtSBnHT60MLB6bPGEOr3n4ExkGwoVaHxABaXe1H4DkKD3GU1aETGt66W70KPJF0vEgnWF07MUShzNNFu4IC36jUqIHMflbbIzYYqFT2TYUERtqEzypVjqXNWVbfIzbQOq7SKBrmFHgG6Z58m2j1VbVBZeaSKVPgJuXGNVp91W3QlEtgJBDTzmZzt9VX3Qaj3Utct8CXK1d8Fzkn6codsMF3leu4LJvAkxQrXBVCo5KEu8QmWpjcObOVzQakB0S0hUYGuQ9kjbbR6toF2JbELphGvlBsaSKkuTX9Bo8jvfSAD1lxs+JVsY0G+oimnV30WKWKsCH+PatlTtxDxQUNeMFYt8DjlCr5NcU0h2NMsEtspIFx7jF4L+kcQ8GUfbXVMS9wWkEjuBBzqhoIjDikHQoVbCW75egVW8QPYRrHoYvWij9+2urmGUuUyh0BgeuVCl9hdYvcVvUQuFapcDv2Rm+rWi2BERr7ptXNM2CrlJbAgxQKRljoB1Y3z4C4OxXKHQSBaxQK/p/VzDc0jtLWaAm83+rlGwe0BNaIk+pp9fINjU2HfhBYI0tOX6uXb2iEFffWym9VZfXyjWqNQrUEtrmzYmIz+KI1EkYfki7HXm3q/UXDtmGlRsEppW/jYKubZwwmnXDlVIXikuZEq5tn1CmVu7+C9HJV1VndIn8Z9kHg3UqFj7K6ecbZSuXuhsA7lQofa3WL3FY7NQU+k5xwXIvCPoMRmgJvVioc7soJVr+CmEB6rt3NEHiT4sNPsfoVxBWKZW+CowPpfLYrVYBtQ+w3t1odswJDGLIPaR2MPx5vMCIq9ypVgAefbnXMiemK4iJsdkfaF71GsRG3kL20Ixt6iW20cCRdYtrwKxUrwiGra62e3fB50r39vNkt8IvKjcEZnGqraSeqxSaaWOEWGD+0KVaGidb9VtdO/Ih0gh3TaMsUGFtVy5UbhVu8plltjyRJmalcx3LRtMvk548hNO5hcpJ8lytw4u/nIdTTmQLanU4Ymei2hVA5Ut4jwXhLmYmLk5ZLQ5qL1JKTIL3LG4xfhHHcpFoaenEZiYv8J8+GJO7qtLiUZX26IMRZJE7U3UmlHWKLtiFt0lMUXhrHx90/ZGZ8/yg5u0uVIRoBSzRc9rSuxMRFysJ5pJ97zA2cCYPreVeuNxib/4simHjAk/YT0snCGjYQnfELcjxJo0OuexFlpMzIdmfDBcy/+ii0WWZtKBjZArB5jS2wXkV+AzFM/JSSdfwUyUU/SU6m3qYIh50JmdrlupQDV9+M9FAgbg/5EHU/SYiu/mbmbCo+3hepl56QL8/fKX4huD1lyYekY1Mp+iBDDHFndvvm5RAYi3Gv2V9uZ34/y0IbnpTH5I0cGfDhcR3cC9Jb4Iq9Vyj8iy0xtuE6n1HSS0HcD8foCwff9nyvAqN7RaIur0lUHiDnqrU215pvgMyUEZKykFzp9QwB25xbZD39TTJ/Ewsmmj+WttRJTxVXwA7YuOge4w6Bc/DaDn/YyByZUcYVzGXMY+VP0ziQpU6TbGC+3xF/XJerDfkaV8Fc77OiVuYlrjKGMXczJzFrmNsNN2yWorhpfi3m4r4sWmV9/kJX28ED4zcdEu5HQlbzbHvMkynPNWxFTCrOIv1LsjCZQtLQuN56PpnypGEqFGmxhPzfXYgrY35PXe8OqBJXHcaIRw017D4K5wY0rBDujam4T1OBHFtebh/FRAt3GPrNRovdqfQFH8fIpAj37OG2TORKPjlAwxDMN5DCu02trziB4nT3Eya0w2SCRcW+wekZ2neKeIBG18y5VTxWt8nyppGCBdz/hcK9Ku+A1Bkn3FlIXK8CA/dTcXfe/sBVBxwXy6S7xloSV9duKLJxKyMwaJwy98G1O9fLB70KnBLnh9+35hTqfssI7uPFjseD5By6wpfgkI8yEai/NAKjxiWp+UHRImVSYOA1cT/6xeyMn58jJ7LjoHTdc8TN9y1ydpYyg+T3iGcM9xyMkS/NPyIw7LaYCHyzOKG8oYh14fwi1mrn5invROazzAeZR8nv+jOHMPu5PjeKOZd5fghr32ysjcGad4Hf5y6moVXMdT4frJnZM0d5dcw98rkG+d158rsNIjZ+t1Y+Mz8igT8SsbhwOvX1+9zFnDh4T5Y/fg6Oj5FZXzYgcfjx5ISRrnGNM0jQ+S+Xfxt3AV3KvD6irjEVYbe8R2zuOxuel3VwLmA35XnydxcuIjfmUTKBnaN3IppUTSx25RDkzBC27qb69CY9JNP7ygQKHMUzw7bTgiwLgx4KW8z8gk+RMatGQMFFCRO4KgJxYdtAIVQmTv0tkHHRj8jDZS2Lvdwbyd8xjmOp9JOdwpazyECUa5AxOBM46/pYgC8N3G6vyHpzn6yHEeuEdMfYuKgl54o8BBL0p/AjOmpl0hfWm2skhNlkCls8EJKqLfQ58UpjKHmPIOlTom/uQZnXLDZVoOmD2dha/BTp33Z2dAmKC5tdaFJcDYFJxtVzInInJhXrxWbNpgvWSq2AszHYVHjUalcQiF4dS67zREkQGIDH6zrmDfJ3i+72+ZJMqNTsE0ZylEfICchusZp2GcYQT/awdkVhZb9BNj1EdNxC4UZixHGWPEdssSmMCsNMb4TgtR+SE534ZBmKizafRk6AQ2iXhkWRvwqTiSmyJFhbBsLiXNVF0uZtYVceZYIyBLEhNusa8h8Ok4SUTBulbWjjc1E9RNQZ6OAnxQlC+KZx7HKVx//3dgTP6jXNVIu0Zbi07XCUBjbpizYFBAekz9lm81itoeiyySOytCGH+L8l51zzyjgZM44Cp4EN9qvI2cRAcAE2HnC4+ctaTgEPqCXn9P4F8maix1kg4r4TRyPGWWCLEhiDLZTxfwEGAIg2ItsKhKpcAAAAAElFTkSuQmCC;fontSize=32;fontColor=#F0F0F0;" parent="1" vertex="1">
                    <mxGeometry x="-1750" y="510" width="200" height="200" as="geometry"/>
                </mxCell>
                <mxCell id="el2H38QsFk6QhJ0XLffM-29" style="edgeStyle=orthogonalEdgeStyle;rounded=0;orthogonalLoop=1;jettySize=auto;html=1;labelBackgroundColor=#1A1A1A;strokeWidth=5;fontSize=32;fontColor=#f0f0f0;exitX=1;exitY=0.5;exitDx=0;exitDy=0;entryX=0;entryY=0.5;entryDx=0;entryDy=0;strokeColor=#F0F0F0;" parent="1" source="el2H38QsFk6QhJ0XLffM-23" target="el2H38QsFk6QhJ0XLffM-17" edge="1">
                    <mxGeometry relative="1" as="geometry">
                        <Array as="points">
                            <mxPoint x="-750" y="435"/>
                            <mxPoint x="-750" y="650"/>
                        </Array>
                    </mxGeometry>
                </mxCell>
                <mxCell id="3" value="Java Spring Boot&#10;Application" style="shape=image;verticalLabelPosition=bottom;labelBackgroundColor=none;verticalAlign=top;aspect=fixed;imageAspect=0;image=data:image/svg+xml,PHN2ZyB4bWxucz0iaHR0cDovL3d3dy53My5vcmcvMjAwMC9zdmciIHZpZXdCb3g9IjAgMCA5Ny4xIDk3Ij48ZGVmcz48c3R5bGU+LmNscy0xe2ZpbGw6IzZkYjMzZjt9PC9zdHlsZT48L2RlZnM+PHRpdGxlPnNwcmluZy1pY29uPC90aXRsZT48ZyBpZD0iTGF5ZXJfMiIgZGF0YS1uYW1lPSJMYXllciAyIj48ZyBpZD0ibG9nb3MiPjxwYXRoIGNsYXNzPSJjbHMtMSIgZD0iTTg4LjQsNS42YTQyLjMyLDQyLjMyLDAsMCwxLTUuMiw5LjFBNDguNDYsNDguNDYsMCwxLDAsMTUuNSw4NGwxLjgsMS42QTQ4LjQxLDQ4LjQxLDAsMCwwLDk2LjgsNTJDOTguMiwzOS44LDk0LjUsMjQuMiw4OC40LDUuNlpNMjIuNSw4NC40YTQuMTIsNC4xMiwwLDEsMS0uNi01LjhBNC4yMSw0LjIxLDAsMCwxLDIyLjUsODQuNFpNODguMSw2OS45Qzc2LjIsODUuOCw1MC42LDgwLjQsMzQuMyw4MS4yYzAsMC0yLjkuMi01LjguNiwwLDAsMS4xLS41LDIuNS0xLDExLjUtNCwxNi45LTQuOCwyMy45LTguNEM2OCw2NS43LDgxLjEsNTEsODMuNywzNS44Yy01LDE0LjYtMjAuMiwyNy4yLTM0LDMyLjNDNDAuMiw3MS42LDIzLjEsNzUsMjMuMSw3NWwtLjctLjRjLTExLjYtNS43LTEyLTMwLjksOS4yLTM5LDkuMy0zLjYsMTguMS0xLjYsMjguMi00LDEwLjctMi41LDIzLjEtMTAuNSwyOC4xLTIxQzkzLjUsMjcuNSwxMDAuMyw1My43LDg4LjEsNjkuOVoiLz48L2c+PC9nPjwvc3ZnPg==;fontColor=#F0F0F0;fontSize=32;" vertex="1" parent="1">
                    <mxGeometry x="-1060" y="535" width="200" height="200" as="geometry"/>
                </mxCell>
            </root>
        </mxGraphModel>
    </diagram>
</mxfile>
